<mxfile host="app.diagrams.net" agent="Mozilla/5.0 (Windows NT 10.0; Win64; x64) AppleWebKit/537.36 (KHTML, like Gecko) Chrome/134.0.0.0 Safari/537.36" version="26.1.3" pages="4">
  <diagram name="caso de uso Geral" id="0CrfBY96E_sshCwQozCh">
    <mxGraphModel dx="1050" dy="522" grid="1" gridSize="10" guides="1" tooltips="1" connect="1" arrows="1" fold="1" page="1" pageScale="1" pageWidth="827" pageHeight="1169" math="0" shadow="0">
      <root>
        <mxCell id="0" />
        <mxCell id="1" parent="0" />
        <mxCell id="vOz-vvYR9Ls7qbirZ68q-1" value="Usuario" style="shape=umlActor;verticalLabelPosition=bottom;verticalAlign=top;html=1;outlineConnect=0;" parent="1" vertex="1">
          <mxGeometry x="400" y="240" width="30" height="60" as="geometry" />
        </mxCell>
        <mxCell id="J2kdd_n66vORI7HgGlyF-1" value="Criar cadastro de funcionários" style="ellipse;whiteSpace=wrap;html=1;" parent="1" vertex="1">
          <mxGeometry x="430" y="80" width="120" height="80" as="geometry" />
        </mxCell>
        <mxCell id="J2kdd_n66vORI7HgGlyF-2" value="Controlar folhas de pagamento" style="ellipse;whiteSpace=wrap;html=1;" parent="1" vertex="1">
          <mxGeometry x="510" y="180" width="120" height="80" as="geometry" />
        </mxCell>
        <mxCell id="J2kdd_n66vORI7HgGlyF-3" value="Controlar férias" style="ellipse;whiteSpace=wrap;html=1;" parent="1" vertex="1">
          <mxGeometry x="200" y="180" width="120" height="80" as="geometry" />
        </mxCell>
        <mxCell id="J2kdd_n66vORI7HgGlyF-7" style="rounded=0;orthogonalLoop=1;jettySize=auto;html=1;exitX=1;exitY=0.5;exitDx=0;exitDy=0;endArrow=none;startFill=0;targetPerimeterSpacing=0;sourcePerimeterSpacing=0;" parent="1" source="J2kdd_n66vORI7HgGlyF-3" edge="1">
          <mxGeometry relative="1" as="geometry">
            <mxPoint x="390" y="250" as="targetPoint" />
          </mxGeometry>
        </mxCell>
        <mxCell id="J2kdd_n66vORI7HgGlyF-8" style="rounded=0;orthogonalLoop=1;jettySize=auto;html=1;endArrow=none;startFill=0;exitX=0.5;exitY=1;exitDx=0;exitDy=0;" parent="1" source="J2kdd_n66vORI7HgGlyF-1" edge="1">
          <mxGeometry relative="1" as="geometry">
            <mxPoint x="430" y="230" as="targetPoint" />
          </mxGeometry>
        </mxCell>
        <mxCell id="J2kdd_n66vORI7HgGlyF-9" style="rounded=0;orthogonalLoop=1;jettySize=auto;html=1;exitX=0;exitY=0.5;exitDx=0;exitDy=0;endArrow=none;startFill=0;" parent="1" source="J2kdd_n66vORI7HgGlyF-2" edge="1">
          <mxGeometry relative="1" as="geometry">
            <mxPoint x="440" y="250" as="targetPoint" />
          </mxGeometry>
        </mxCell>
        <mxCell id="ocQwhE3SbaYviMQEhQJd-1" value="Controlar dados dos funcionários" style="ellipse;whiteSpace=wrap;html=1;" parent="1" vertex="1">
          <mxGeometry x="280" y="80" width="120" height="80" as="geometry" />
        </mxCell>
        <mxCell id="ocQwhE3SbaYviMQEhQJd-2" style="rounded=0;orthogonalLoop=1;jettySize=auto;html=1;endArrow=none;startFill=0;exitX=0.5;exitY=1;exitDx=0;exitDy=0;" parent="1" source="ocQwhE3SbaYviMQEhQJd-1" edge="1">
          <mxGeometry relative="1" as="geometry">
            <mxPoint x="400" y="230" as="targetPoint" />
            <mxPoint x="461" y="168" as="sourcePoint" />
          </mxGeometry>
        </mxCell>
      </root>
    </mxGraphModel>
  </diagram>
  <diagram id="ygrDjhiPHqGRqRjQP896" name="caso de uso especifico 1 - cadastros">
    <mxGraphModel dx="1050" dy="522" grid="1" gridSize="10" guides="1" tooltips="1" connect="1" arrows="1" fold="1" page="1" pageScale="1" pageWidth="827" pageHeight="1169" math="0" shadow="0">
      <root>
        <mxCell id="0" />
        <mxCell id="1" parent="0" />
        <mxCell id="w7Z9Zd6E7dr5YyJ5E0sN-1" value="Usuario&lt;br&gt;comum" style="shape=umlActor;verticalLabelPosition=bottom;verticalAlign=top;html=1;outlineConnect=0;" parent="1" vertex="1">
          <mxGeometry x="40" y="170" width="30" height="60" as="geometry" />
        </mxCell>
        <mxCell id="oN8oOTXZtv8fEpdPQnBE-11" style="rounded=0;orthogonalLoop=1;jettySize=auto;html=1;exitX=1;exitY=0.5;exitDx=0;exitDy=0;endArrow=none;startFill=0;" parent="1" source="oN8oOTXZtv8fEpdPQnBE-1" edge="1">
          <mxGeometry relative="1" as="geometry">
            <mxPoint x="440" y="160" as="targetPoint" />
          </mxGeometry>
        </mxCell>
        <mxCell id="oN8oOTXZtv8fEpdPQnBE-1" value="Criar novo cadastro de funcionário" style="ellipse;whiteSpace=wrap;html=1;" parent="1" vertex="1">
          <mxGeometry x="200" y="10" width="120" height="80" as="geometry" />
        </mxCell>
        <mxCell id="oN8oOTXZtv8fEpdPQnBE-12" style="rounded=0;orthogonalLoop=1;jettySize=auto;html=1;exitX=1;exitY=0.5;exitDx=0;exitDy=0;endArrow=none;startFill=0;" parent="1" source="oN8oOTXZtv8fEpdPQnBE-2" edge="1">
          <mxGeometry relative="1" as="geometry">
            <mxPoint x="420" y="190" as="targetPoint" />
          </mxGeometry>
        </mxCell>
        <mxCell id="oN8oOTXZtv8fEpdPQnBE-2" value="Editar informações de um cadastro" style="ellipse;whiteSpace=wrap;html=1;" parent="1" vertex="1">
          <mxGeometry x="200" y="110" width="120" height="80" as="geometry" />
        </mxCell>
        <mxCell id="oN8oOTXZtv8fEpdPQnBE-13" style="rounded=0;orthogonalLoop=1;jettySize=auto;html=1;exitX=1;exitY=0.5;exitDx=0;exitDy=0;endArrow=none;startFill=0;" parent="1" source="oN8oOTXZtv8fEpdPQnBE-3" edge="1">
          <mxGeometry relative="1" as="geometry">
            <mxPoint x="420" y="220" as="targetPoint" />
          </mxGeometry>
        </mxCell>
        <mxCell id="oN8oOTXZtv8fEpdPQnBE-3" value="Anexar documentos&amp;nbsp;&lt;div&gt;a um cadastro&lt;/div&gt;" style="ellipse;whiteSpace=wrap;html=1;" parent="1" vertex="1">
          <mxGeometry x="200" y="210" width="120" height="80" as="geometry" />
        </mxCell>
        <mxCell id="oN8oOTXZtv8fEpdPQnBE-14" style="rounded=0;orthogonalLoop=1;jettySize=auto;html=1;exitX=1;exitY=0.5;exitDx=0;exitDy=0;endArrow=none;startFill=0;" parent="1" source="oN8oOTXZtv8fEpdPQnBE-4" edge="1">
          <mxGeometry relative="1" as="geometry">
            <mxPoint x="440" y="250" as="targetPoint" />
          </mxGeometry>
        </mxCell>
        <mxCell id="oN8oOTXZtv8fEpdPQnBE-4" value="Excluir cadasrtro de funcionário" style="ellipse;whiteSpace=wrap;html=1;" parent="1" vertex="1">
          <mxGeometry x="200" y="310" width="120" height="80" as="geometry" />
        </mxCell>
        <mxCell id="oN8oOTXZtv8fEpdPQnBE-7" style="rounded=0;orthogonalLoop=1;jettySize=auto;html=1;entryX=0;entryY=0.5;entryDx=0;entryDy=0;endArrow=none;startFill=0;" parent="1" target="oN8oOTXZtv8fEpdPQnBE-2" edge="1">
          <mxGeometry relative="1" as="geometry">
            <mxPoint x="95" y="190" as="sourcePoint" />
          </mxGeometry>
        </mxCell>
        <mxCell id="oN8oOTXZtv8fEpdPQnBE-8" style="rounded=0;orthogonalLoop=1;jettySize=auto;html=1;entryX=0;entryY=0.5;entryDx=0;entryDy=0;endArrow=none;startFill=0;" parent="1" target="oN8oOTXZtv8fEpdPQnBE-1" edge="1">
          <mxGeometry relative="1" as="geometry">
            <mxPoint x="80" y="160" as="sourcePoint" />
          </mxGeometry>
        </mxCell>
        <mxCell id="oN8oOTXZtv8fEpdPQnBE-9" style="rounded=0;orthogonalLoop=1;jettySize=auto;html=1;exitX=1;exitY=0.75;exitDx=0;exitDy=0;entryX=0;entryY=0.5;entryDx=0;entryDy=0;endArrow=none;startFill=0;" parent="1" target="oN8oOTXZtv8fEpdPQnBE-3" edge="1">
          <mxGeometry relative="1" as="geometry">
            <mxPoint x="95" y="230" as="sourcePoint" />
          </mxGeometry>
        </mxCell>
        <mxCell id="oN8oOTXZtv8fEpdPQnBE-10" value="Administrador" style="shape=umlActor;verticalLabelPosition=bottom;verticalAlign=top;html=1;outlineConnect=0;" parent="1" vertex="1">
          <mxGeometry x="440" y="170" width="30" height="60" as="geometry" />
        </mxCell>
        <mxCell id="oN8oOTXZtv8fEpdPQnBE-15" value="Cadastrar novo usuario do sistema" style="ellipse;whiteSpace=wrap;html=1;" parent="1" vertex="1">
          <mxGeometry x="590" y="110" width="120" height="80" as="geometry" />
        </mxCell>
        <mxCell id="oN8oOTXZtv8fEpdPQnBE-16" value="Excluir usuario do sistema" style="ellipse;whiteSpace=wrap;html=1;" parent="1" vertex="1">
          <mxGeometry x="590" y="210" width="120" height="80" as="geometry" />
        </mxCell>
        <mxCell id="SHPBMPH2rR21QmmVUz52-1" style="rounded=0;orthogonalLoop=1;jettySize=auto;html=1;entryX=0;entryY=0.5;entryDx=0;entryDy=0;endArrow=none;startFill=0;" parent="1" edge="1">
          <mxGeometry relative="1" as="geometry">
            <mxPoint x="485" y="190" as="sourcePoint" />
            <mxPoint x="590" y="150" as="targetPoint" />
          </mxGeometry>
        </mxCell>
        <mxCell id="SHPBMPH2rR21QmmVUz52-2" style="rounded=0;orthogonalLoop=1;jettySize=auto;html=1;exitX=1;exitY=0.75;exitDx=0;exitDy=0;entryX=0;entryY=0.5;entryDx=0;entryDy=0;endArrow=none;startFill=0;" parent="1" edge="1">
          <mxGeometry relative="1" as="geometry">
            <mxPoint x="485" y="230" as="sourcePoint" />
            <mxPoint x="590" y="250" as="targetPoint" />
          </mxGeometry>
        </mxCell>
      </root>
    </mxGraphModel>
  </diagram>
  <diagram id="IkxbTf9flS5gHm3Uetjy" name="caso de uso especifico 2 - folha de pagamento">
    <mxGraphModel dx="1050" dy="522" grid="1" gridSize="10" guides="1" tooltips="1" connect="1" arrows="1" fold="1" page="1" pageScale="1" pageWidth="827" pageHeight="1169" math="0" shadow="0">
      <root>
        <mxCell id="0" />
        <mxCell id="1" parent="0" />
        <mxCell id="ILUg3S2r2RScqpNGac1I-1" value="Usuario&lt;br&gt;comum&lt;div&gt;&lt;br&gt;&lt;/div&gt;" style="shape=umlActor;verticalLabelPosition=bottom;verticalAlign=top;html=1;outlineConnect=0;" parent="1" vertex="1">
          <mxGeometry x="120" y="180" width="30" height="60" as="geometry" />
        </mxCell>
        <mxCell id="yhrnWW48f6iSwoGck6du-1" value="Gerar folha de pagamento mensal" style="ellipse;whiteSpace=wrap;html=1;" parent="1" vertex="1">
          <mxGeometry x="290" y="180" width="120" height="80" as="geometry" />
        </mxCell>
        <mxCell id="yhrnWW48f6iSwoGck6du-2" value="Acessar historico de pagamentos" style="ellipse;whiteSpace=wrap;html=1;" parent="1" vertex="1">
          <mxGeometry x="290" y="310" width="120" height="80" as="geometry" />
        </mxCell>
        <mxCell id="yhrnWW48f6iSwoGck6du-3" value="Requisitar vale de adiantamento" style="ellipse;whiteSpace=wrap;html=1;" parent="1" vertex="1">
          <mxGeometry x="294" y="50" width="120" height="80" as="geometry" />
        </mxCell>
        <mxCell id="yhrnWW48f6iSwoGck6du-4" value="Administrador" style="shape=umlActor;verticalLabelPosition=bottom;verticalAlign=top;html=1;outlineConnect=0;" parent="1" vertex="1">
          <mxGeometry x="550" y="180" width="30" height="60" as="geometry" />
        </mxCell>
        <mxCell id="yhrnWW48f6iSwoGck6du-12" style="rounded=0;orthogonalLoop=1;jettySize=auto;html=1;exitX=1;exitY=0.5;exitDx=0;exitDy=0;endArrow=none;startFill=0;" parent="1" source="yhrnWW48f6iSwoGck6du-5" edge="1">
          <mxGeometry relative="1" as="geometry">
            <mxPoint x="560" y="270" as="targetPoint" />
          </mxGeometry>
        </mxCell>
        <mxCell id="yhrnWW48f6iSwoGck6du-5" value="Aprovar vales" style="ellipse;whiteSpace=wrap;html=1;" parent="1" vertex="1">
          <mxGeometry x="280" y="440" width="120" height="80" as="geometry" />
        </mxCell>
        <mxCell id="yhrnWW48f6iSwoGck6du-6" value="" style="endArrow=none;html=1;rounded=0;entryX=0;entryY=0.5;entryDx=0;entryDy=0;" parent="1" target="yhrnWW48f6iSwoGck6du-2" edge="1">
          <mxGeometry width="50" height="50" relative="1" as="geometry">
            <mxPoint x="170" y="260" as="sourcePoint" />
            <mxPoint x="280" y="360" as="targetPoint" />
          </mxGeometry>
        </mxCell>
        <mxCell id="yhrnWW48f6iSwoGck6du-7" value="" style="endArrow=none;html=1;rounded=0;entryX=0;entryY=0.5;entryDx=0;entryDy=0;" parent="1" target="yhrnWW48f6iSwoGck6du-1" edge="1">
          <mxGeometry width="50" height="50" relative="1" as="geometry">
            <mxPoint x="170" y="220" as="sourcePoint" />
            <mxPoint x="250" y="190" as="targetPoint" />
          </mxGeometry>
        </mxCell>
        <mxCell id="yhrnWW48f6iSwoGck6du-8" value="" style="endArrow=none;html=1;rounded=0;entryX=0;entryY=0.5;entryDx=0;entryDy=0;" parent="1" target="yhrnWW48f6iSwoGck6du-3" edge="1">
          <mxGeometry width="50" height="50" relative="1" as="geometry">
            <mxPoint x="170" y="180" as="sourcePoint" />
            <mxPoint x="220" y="130" as="targetPoint" />
          </mxGeometry>
        </mxCell>
        <mxCell id="yhrnWW48f6iSwoGck6du-9" value="" style="endArrow=none;html=1;rounded=0;" parent="1" edge="1">
          <mxGeometry width="50" height="50" relative="1" as="geometry">
            <mxPoint x="534" y="260" as="sourcePoint" />
            <mxPoint x="410" y="350" as="targetPoint" />
          </mxGeometry>
        </mxCell>
        <mxCell id="yhrnWW48f6iSwoGck6du-10" value="" style="endArrow=none;html=1;rounded=0;" parent="1" edge="1">
          <mxGeometry width="50" height="50" relative="1" as="geometry">
            <mxPoint x="534" y="220" as="sourcePoint" />
            <mxPoint x="410" y="220" as="targetPoint" />
          </mxGeometry>
        </mxCell>
        <mxCell id="yhrnWW48f6iSwoGck6du-11" value="" style="endArrow=none;html=1;rounded=0;entryX=0;entryY=0.5;entryDx=0;entryDy=0;" parent="1" edge="1">
          <mxGeometry width="50" height="50" relative="1" as="geometry">
            <mxPoint x="538" y="180" as="sourcePoint" />
            <mxPoint x="414" y="90" as="targetPoint" />
          </mxGeometry>
        </mxCell>
      </root>
    </mxGraphModel>
  </diagram>
  <diagram id="KYpty--nECG6XdaHnbcp" name="caso de uso especifico 3 - ferias">
    <mxGraphModel dx="1050" dy="522" grid="1" gridSize="10" guides="1" tooltips="1" connect="1" arrows="1" fold="1" page="1" pageScale="1" pageWidth="827" pageHeight="1169" math="0" shadow="0">
      <root>
        <mxCell id="0" />
        <mxCell id="1" parent="0" />
        <mxCell id="G_lJ2jBXzwB80FLPjcgz-1" value="Usuario&lt;br&gt;comum&lt;div&gt;&lt;br&gt;&lt;/div&gt;" style="shape=umlActor;verticalLabelPosition=bottom;verticalAlign=top;html=1;outlineConnect=0;" parent="1" vertex="1">
          <mxGeometry x="60" y="290" width="30" height="60" as="geometry" />
        </mxCell>
        <mxCell id="DGd7R3-CNVBM0EAj0jEX-1" value="Calcular quantidade de ferias disponiveis" style="ellipse;whiteSpace=wrap;html=1;" parent="1" vertex="1">
          <mxGeometry x="230" y="120" width="120" height="80" as="geometry" />
        </mxCell>
        <mxCell id="DGd7R3-CNVBM0EAj0jEX-2" value="Criar pedido de ferias" style="ellipse;whiteSpace=wrap;html=1;" parent="1" vertex="1">
          <mxGeometry x="230" y="230" width="120" height="80" as="geometry" />
        </mxCell>
        <mxCell id="DGd7R3-CNVBM0EAj0jEX-3" value="Consultar histórico de ferias" style="ellipse;whiteSpace=wrap;html=1;" parent="1" vertex="1">
          <mxGeometry x="230" y="340" width="120" height="80" as="geometry" />
        </mxCell>
        <mxCell id="DGd7R3-CNVBM0EAj0jEX-6" value="Marcar ferias como pagas" style="ellipse;whiteSpace=wrap;html=1;" parent="1" vertex="1">
          <mxGeometry x="220" y="560" width="120" height="80" as="geometry" />
        </mxCell>
        <mxCell id="DGd7R3-CNVBM0EAj0jEX-8" value="Cancelar ferias em aberto" style="ellipse;whiteSpace=wrap;html=1;" parent="1" vertex="1">
          <mxGeometry x="230" y="450" width="120" height="80" as="geometry" />
        </mxCell>
        <mxCell id="DGd7R3-CNVBM0EAj0jEX-9" value="Administrador&lt;div&gt;&lt;br&gt;&lt;/div&gt;" style="shape=umlActor;verticalLabelPosition=bottom;verticalAlign=top;html=1;outlineConnect=0;" parent="1" vertex="1">
          <mxGeometry x="490" y="290" width="30" height="60" as="geometry" />
        </mxCell>
        <mxCell id="DGd7R3-CNVBM0EAj0jEX-15" style="rounded=0;orthogonalLoop=1;jettySize=auto;html=1;exitX=1;exitY=0.5;exitDx=0;exitDy=0;endArrow=none;startFill=0;" parent="1" source="DGd7R3-CNVBM0EAj0jEX-1" edge="1">
          <mxGeometry relative="1" as="geometry">
            <mxPoint x="460" y="270" as="targetPoint" />
            <mxPoint x="349" y="160" as="sourcePoint" />
          </mxGeometry>
        </mxCell>
        <mxCell id="DGd7R3-CNVBM0EAj0jEX-16" style="rounded=0;orthogonalLoop=1;jettySize=auto;html=1;exitX=0;exitY=0.5;exitDx=0;exitDy=0;endArrow=none;startFill=0;" parent="1" edge="1">
          <mxGeometry relative="1" as="geometry">
            <mxPoint x="460" y="310" as="targetPoint" />
            <mxPoint x="350" y="270" as="sourcePoint" />
          </mxGeometry>
        </mxCell>
        <mxCell id="DGd7R3-CNVBM0EAj0jEX-17" style="rounded=0;orthogonalLoop=1;jettySize=auto;html=1;endArrow=none;startFill=0;" parent="1" edge="1">
          <mxGeometry relative="1" as="geometry">
            <mxPoint x="470" y="340" as="targetPoint" />
            <mxPoint x="350" y="380" as="sourcePoint" />
          </mxGeometry>
        </mxCell>
        <mxCell id="DGd7R3-CNVBM0EAj0jEX-18" value="Aprovar pedido de ferias" style="ellipse;whiteSpace=wrap;html=1;" parent="1" vertex="1">
          <mxGeometry x="660" y="290" width="120" height="80" as="geometry" />
        </mxCell>
        <mxCell id="DGd7R3-CNVBM0EAj0jEX-19" style="rounded=0;orthogonalLoop=1;jettySize=auto;html=1;exitX=0;exitY=0.5;exitDx=0;exitDy=0;endArrow=none;startFill=0;entryX=0;entryY=0.5;entryDx=0;entryDy=0;" parent="1" target="DGd7R3-CNVBM0EAj0jEX-18" edge="1">
          <mxGeometry relative="1" as="geometry">
            <mxPoint x="660" y="329.5" as="targetPoint" />
            <mxPoint x="540" y="329.5" as="sourcePoint" />
          </mxGeometry>
        </mxCell>
        <mxCell id="DGd7R3-CNVBM0EAj0jEX-20" value="Marcar ferias como não pagas" style="ellipse;whiteSpace=wrap;html=1;" parent="1" vertex="1">
          <mxGeometry x="660" y="170" width="120" height="80" as="geometry" />
        </mxCell>
        <mxCell id="DGd7R3-CNVBM0EAj0jEX-21" style="rounded=0;orthogonalLoop=1;jettySize=auto;html=1;exitX=0;exitY=0.5;exitDx=0;exitDy=0;endArrow=none;startFill=0;" parent="1" source="DGd7R3-CNVBM0EAj0jEX-20" edge="1">
          <mxGeometry relative="1" as="geometry">
            <mxPoint x="530" y="290" as="targetPoint" />
            <mxPoint x="660" y="210" as="sourcePoint" />
          </mxGeometry>
        </mxCell>
        <mxCell id="ss_eDWt9wq0rYWRGsTHr-3" value="" style="endArrow=none;html=1;rounded=0;exitX=1;exitY=0.5;exitDx=0;exitDy=0;" parent="1" source="DGd7R3-CNVBM0EAj0jEX-8" edge="1">
          <mxGeometry width="50" height="50" relative="1" as="geometry">
            <mxPoint x="390" y="320" as="sourcePoint" />
            <mxPoint x="480" y="370" as="targetPoint" />
          </mxGeometry>
        </mxCell>
        <mxCell id="ss_eDWt9wq0rYWRGsTHr-4" value="" style="endArrow=none;html=1;rounded=0;exitX=1;exitY=0.5;exitDx=0;exitDy=0;" parent="1" source="DGd7R3-CNVBM0EAj0jEX-6" edge="1">
          <mxGeometry width="50" height="50" relative="1" as="geometry">
            <mxPoint x="390" y="390" as="sourcePoint" />
            <mxPoint x="500" y="390" as="targetPoint" />
          </mxGeometry>
        </mxCell>
        <mxCell id="ss_eDWt9wq0rYWRGsTHr-5" style="rounded=0;orthogonalLoop=1;jettySize=auto;html=1;exitX=1;exitY=0.5;exitDx=0;exitDy=0;endArrow=none;startFill=0;" parent="1" edge="1">
          <mxGeometry relative="1" as="geometry">
            <mxPoint x="120" y="265" as="targetPoint" />
            <mxPoint x="230" y="155" as="sourcePoint" />
          </mxGeometry>
        </mxCell>
        <mxCell id="ss_eDWt9wq0rYWRGsTHr-6" style="rounded=0;orthogonalLoop=1;jettySize=auto;html=1;exitX=0;exitY=0.5;exitDx=0;exitDy=0;endArrow=none;startFill=0;" parent="1" edge="1">
          <mxGeometry relative="1" as="geometry">
            <mxPoint x="120" y="310" as="targetPoint" />
            <mxPoint x="230" y="270" as="sourcePoint" />
          </mxGeometry>
        </mxCell>
        <mxCell id="ss_eDWt9wq0rYWRGsTHr-7" style="rounded=0;orthogonalLoop=1;jettySize=auto;html=1;endArrow=none;startFill=0;" parent="1" edge="1">
          <mxGeometry relative="1" as="geometry">
            <mxPoint x="110" y="340" as="targetPoint" />
            <mxPoint x="230" y="380" as="sourcePoint" />
          </mxGeometry>
        </mxCell>
        <mxCell id="ss_eDWt9wq0rYWRGsTHr-9" value="" style="endArrow=none;html=1;rounded=0;exitX=1;exitY=0.5;exitDx=0;exitDy=0;" parent="1" edge="1">
          <mxGeometry width="50" height="50" relative="1" as="geometry">
            <mxPoint x="230" y="485" as="sourcePoint" />
            <mxPoint x="100" y="365" as="targetPoint" />
          </mxGeometry>
        </mxCell>
        <mxCell id="ss_eDWt9wq0rYWRGsTHr-10" value="" style="endArrow=none;html=1;rounded=0;exitX=1;exitY=0.5;exitDx=0;exitDy=0;" parent="1" edge="1">
          <mxGeometry width="50" height="50" relative="1" as="geometry">
            <mxPoint x="230" y="595" as="sourcePoint" />
            <mxPoint x="70" y="385" as="targetPoint" />
          </mxGeometry>
        </mxCell>
      </root>
    </mxGraphModel>
  </diagram>
</mxfile>
